<svg xmlns="http://www.w3.org/2000/svg" width="56.086" height="65.5" viewBox="0 0 56.086 65.5"><defs><style>.a{fill:none;stroke:#000;stroke-linecap:round;stroke-linejoin:round;stroke-width:1.5px;}</style></defs><g transform="translate(-1316.769 -930.224)"><g transform="translate(1348.907 946.957)"><line class="a" y2="41.856" transform="translate(23.199 3.314)"/><line class="a" y1="41.856" transform="translate(0 3.314)"/><path class="a" d="M1362.892,949.213c0,1.831-5.193,3.315-11.6,3.315s-11.6-1.484-11.6-3.315" transform="translate(-1339.693 -939.271)"/><path class="a" d="M1362.892,953.877c0,1.829-5.193,3.313-11.6,3.313s-11.6-1.484-11.6-3.313" transform="translate(-1339.693 -937.306)"/><path class="a" d="M1362.892,958.54c0,1.831-5.193,3.315-11.6,3.315s-11.6-1.484-11.6-3.315" transform="translate(-1339.693 -935.341)"/><path class="a" d="M1362.892,963.786c0,1.831-5.193,3.315-11.6,3.315s-11.6-1.484-11.6-3.315" transform="translate(-1339.693 -933.13)"/><path class="a" d="M1362.892,968.727c0,1.831-5.193,3.315-11.6,3.315s-11.6-1.484-11.6-3.315" transform="translate(-1339.693 -931.048)"/><path class="a" d="M1362.892,973.668c0,1.831-5.193,3.315-11.6,3.315s-11.6-1.484-11.6-3.315" transform="translate(-1339.693 -928.966)"/><ellipse class="a" cx="11.599" cy="3.314" rx="11.599" ry="3.314"/></g><g transform="translate(1318.004 968.461)"><line class="a" y2="20.356" transform="translate(23.199 3.314)"/><line class="a" y1="20.356" transform="translate(0 3.314)"/><path class="a" d="M1341.15,964.342c0,1.831-5.192,3.315-11.6,3.315s-11.6-1.484-11.6-3.315" transform="translate(-1317.952 -954.399)"/><path class="a" d="M1341.15,969c0,1.831-5.192,3.315-11.6,3.315s-11.6-1.484-11.6-3.315" transform="translate(-1317.952 -952.434)"/><path class="a" d="M1341.15,973.668c0,1.831-5.192,3.315-11.6,3.315s-11.6-1.484-11.6-3.315" transform="translate(-1317.952 -950.469)"/><ellipse class="a" cx="11.599" cy="3.314" rx="11.599" ry="3.314"/></g><path class="a" d="M1317.828,949.272l8.069-9.078,11.095,9.078,14.121-17.147" transform="translate(0 0.485)"/><path class="a" d="M1335.577,932.539l9.392-1.565,1.565,9.392" transform="translate(7.479)"/></g></svg>