<svg xmlns="http://www.w3.org/2000/svg" xmlns:xlink="http://www.w3.org/1999/xlink" width="71.335" height="55.48" viewBox="0 0 71.335 55.48"><defs><style>.a,.c{fill:none;stroke-width:1.5px;}.a{stroke:#707070;}.b{clip-path:url(#a);}.c{stroke:#000;stroke-linecap:round;stroke-linejoin:round;}</style><clipPath id="a"><rect class="a" width="71.335" height="55.48"/></clipPath></defs><g class="b" transform="translate(0 0)"><path class="c" d="M23.606,40.405l-5.37-5.37a7.457,7.457,0,0,1-2-4.279l-.249-1.633L29.072,16.04c3.29-.1,5.831.712,7.516,2.4" transform="translate(-3.983 -3.994)"/><rect class="c" width="33.981" height="8.759" transform="translate(0.375 24.403) rotate(-45)"/><rect class="c" width="8.759" height="33.981" transform="translate(40.738 8.406) rotate(-45)"/><path class="c" d="M32.4,48.914,28.463,52.85a2.908,2.908,0,0,1-4.112-4.112L28.286,44.8A2.908,2.908,0,1,1,32.4,48.914Z" transform="translate(-5.855 -10.95)"/><path class="c" d="M70.05,32.449,52.575,14.973l-3,3a3.487,3.487,0,0,1-4.432.339l-.05-.032a2.979,2.979,0,0,0-3.673.48l-4.836,4.836a2.972,2.972,0,0,0-.457,3.7,2.916,2.916,0,0,0,4.5.483L45.608,22.8a2.717,2.717,0,0,0,.214-.264L62.894,39.6Z" transform="translate(-8.888 -3.73)"/><path class="c" d="M38.206,53.755,34.27,57.69a2.908,2.908,0,1,1-4.113-4.111l3.935-3.936a2.908,2.908,0,0,1,4.113,4.112Z" transform="translate(-7.301 -12.155)"/><path class="c" d="M44.014,59.562,40.079,63.5a2.907,2.907,0,0,1-4.112-4.111L39.9,55.45a2.908,2.908,0,0,1,4.112,4.113Z" transform="translate(-8.748 -13.602)"/><path class="c" d="M49.822,65.371l-3.935,3.935a2.908,2.908,0,0,1-4.113-4.111l3.935-3.936a2.908,2.908,0,0,1,4.113,4.112Z" transform="translate(-10.195 -15.049)"/><path class="c" d="M64.711,41.979l3.935,3.935a3.016,3.016,0,0,1-4.263,4.263l-3.935-3.935" transform="translate(-15.058 -10.458)"/><path class="c" d="M58.869,47.787,62.8,51.722a3.089,3.089,0,0,1-4.36,4.361l-3.936-3.935" transform="translate(-13.578 -11.904)"/><path class="c" d="M54.25,53.8l3.935,3.935a2.907,2.907,0,0,1-4.111,4.112" transform="translate(-13.47 -13.401)"/><path class="c" d="M52.757,65.131a2.908,2.908,0,0,1-3.748,4.333" transform="translate(-12.208 -16.225)"/></g></svg>