<svg xmlns="http://www.w3.org/2000/svg" width="69.461" height="74.415" viewBox="0 0 69.461 74.415"><defs><style>.a{fill:none;stroke:#000;stroke-linecap:round;stroke-linejoin:round;stroke-width:1.5px;}</style></defs><g transform="translate(-1289.083 -1166.25)"><circle class="a" cx="14.852" cy="14.852" r="14.852" transform="translate(1302.828 1167)"/><g transform="translate(1321.638 1203.321)"><path class="a" d="M1329.921,1230.278c-.016.529-.012.953-.007,1.477a.908.908,0,0,0,.739.929,12.882,12.882,0,0,0,3.438.225.886.886,0,0,0,.9-.865c.062-.495.108-.854.154-1.334.047-.537.222-.944.757-1.042.563-.115,2.053-.484,2.634-.647a1.111,1.111,0,0,1,1.278.438c.3.437.55.778.863,1.2a.905.905,0,0,0,1.143.318,12.9,12.9,0,0,0,2.913-1.838.886.886,0,0,0,.22-1.229c-.24-.437-.415-.755-.66-1.17-.277-.463-.376-.895,0-1.29.4-.444,1.331-1.556,1.75-2.071a1.109,1.109,0,0,1,1.292-.4c.5.178.9.306,1.4.463a.909.909,0,0,0,1.113-.415,12.911,12.911,0,0,0,1.276-3.2.885.885,0,0,0-.545-1.123c-.452-.213-.779-.368-1.22-.558-.495-.212-.827-.5-.757-1.038a16.459,16.459,0,0,0,.2-2.709,1.107,1.107,0,0,1,.812-1.08c.507-.149.91-.283,1.406-.451a.907.907,0,0,0,.656-.989,12.891,12.891,0,0,0-.849-3.339.885.885,0,0,0-1.1-.59c-.49.094-.846.162-1.316.267-.526.12-.968.081-1.226-.4-.5-.84-1.071-1.782-1.428-2.306a1.106,1.106,0,0,1,.021-1.35c.324-.418.571-.764.873-1.191a.909.909,0,0,0-.05-1.187,12.911,12.911,0,0,0-2.65-2.2.887.887,0,0,0-1.238.17c-.34.364-.589.627-.907.989-.355.407-.735.634-1.227.4-1.033-.442-1.8-.762-2.511-1.025a1.108,1.108,0,0,1-.776-1.106c.016-.527.012-.952.006-1.475a.91.91,0,0,0-.737-.931,12.931,12.931,0,0,0-3.438-.224.886.886,0,0,0-.9.864c-.062.495-.109.855-.153,1.334-.048.538-.222.944-.757,1.043-.443.1-1.882.422-2.633.646a1.107,1.107,0,0,1-1.279-.438c-.3-.437-.549-.777-.863-1.2a.909.909,0,0,0-1.144-.318,12.852,12.852,0,0,0-2.913,1.839.884.884,0,0,0-.22,1.229c.24.437.415.755.66,1.168.277.464.375.895,0,1.29-.392.449-1.381,1.639-1.751,2.072a1.107,1.107,0,0,1-1.291.4c-.5-.178-.9-.306-1.4-.462a.909.909,0,0,0-1.113.414,12.9,12.9,0,0,0-1.276,3.2.886.886,0,0,0,.543,1.124c.452.212.78.366,1.222.558.493.209.823.5.757,1.031a21.476,21.476,0,0,0-.2,2.717,1.107,1.107,0,0,1-.812,1.079c-.507.149-.91.283-1.406.45a.908.908,0,0,0-.656.99,12.887,12.887,0,0,0,.848,3.339.886.886,0,0,0,1.1.589c.489-.094.845-.161,1.316-.266.526-.121.967-.08,1.225.4.23.426,1.074,1.784,1.43,2.3a1.108,1.108,0,0,1-.022,1.351c-.323.417-.57.762-.873,1.191a.908.908,0,0,0,.051,1.186,12.929,12.929,0,0,0,2.65,2.2.884.884,0,0,0,1.236-.171c.342-.363.59-.628.908-.989.355-.406.735-.634,1.225-.4.932.391,1.652.694,2.511,1.025A1.107,1.107,0,0,1,1329.921,1230.278Zm-6.678-19.85a11.274,11.274,0,1,1,6,14.771A11.286,11.286,0,0,1,1323.243,1210.427Z" transform="translate(-1315.531 -1196.347)"/></g><path class="a" d="M1328.5,1199.819a22.97,22.97,0,0,0-6.092-.819h-9.465a23.183,23.183,0,0,0-23.114,23.114v.4h37.321" transform="translate(0 7.604)"/></g></svg>