<svg xmlns="http://www.w3.org/2000/svg" width="82.981" height="66.203" viewBox="0 0 82.981 66.203"><defs><style>.a{fill:none;stroke:#000;stroke-linecap:round;stroke-linejoin:round;stroke-width:1.5px;}</style></defs><g transform="translate(-979.939 -927.939)"><path class="a" d="M1000.139,967.364l-6.152-6.152a8.539,8.539,0,0,1-2.289-4.9l-.285-1.872,14.99-14.989h0c3.77-.113,6.679.816,8.61,2.747" transform="translate(2.911 2.919)"/><rect class="a" width="38.928" height="10.034" transform="translate(1015.621 936.095) rotate(135)"/><rect class="a" width="38.928" height="10.034" transform="translate(1054.765 965.727) rotate(-135)"/><rect class="a" width="13.038" height="6.662" rx="2.603" transform="translate(999.403 974.215) rotate(-45)"/><path class="a" d="M1044.024,958.75,1024,938.73l-3.432,3.432a4,4,0,0,1-5.077.389l-.056-.037a3.412,3.412,0,0,0-4.207.549l-5.54,5.54a3.407,3.407,0,0,0-.525,4.235,3.341,3.341,0,0,0,5.159.552l5.7-5.7a3.032,3.032,0,0,0,.246-.3l19.557,19.558Z" transform="translate(6.612 2.72)"/><rect class="a" width="13.038" height="6.662" rx="2.603" transform="translate(1004.399 978.378) rotate(-45)"/><rect class="a" width="13.038" height="6.662" rx="2.603" transform="translate(1009.396 983.375) rotate(-45)"/><rect class="a" width="13.038" height="6.662" rx="2.603" transform="translate(1014.392 988.371) rotate(-45)"/><path class="a" d="M1026.185,956.885l4.509,4.509a3.4,3.4,0,0,1-.087,4.8h0a3.4,3.4,0,0,1-4.8.086l-4.509-4.508" transform="translate(11.266 7.795)"/><path class="a" d="M1022.306,960.79l4.508,4.509a3.447,3.447,0,0,1-.143,4.853h0a3.447,3.447,0,0,1-4.853.142l-4.508-4.508" transform="translate(10.15 8.887)"/><path class="a" d="M1017.218,964.83l4.509,4.508a3.341,3.341,0,0,1,0,4.71h0a3.34,3.34,0,0,1-4.711,0" transform="translate(10.068 10.016)"/><path class="a" d="M1017.905,972.45a3.342,3.342,0,0,1-.223,4.464h0a3.345,3.345,0,0,1-4.072.5" transform="translate(9.116 12.146)"/></g></svg>