<svg xmlns="http://www.w3.org/2000/svg" width="64.738" height="65.5" viewBox="0 0 64.738 65.5"><defs><style>.a{fill:none;stroke:#000;stroke-linecap:round;stroke-linejoin:round;stroke-width:1.5px;}</style></defs><g transform="translate(-1254.011 -928.25)"><path class="a" d="M1279.932,988.342c-.027.924-.02,1.665-.01,2.583a1.588,1.588,0,0,0,1.292,1.625,22.526,22.526,0,0,0,6.012.393,1.548,1.548,0,0,0,1.575-1.512c.109-.867.189-1.495.268-2.333.084-.94.389-1.652,1.325-1.824.987-.2,3.592-.847,4.606-1.131a1.939,1.939,0,0,1,2.236.767c.52.763.961,1.36,1.508,2.095a1.59,1.59,0,0,0,2,.557,22.591,22.591,0,0,0,5.1-3.217,1.549,1.549,0,0,0,.385-2.149c-.42-.764-.725-1.32-1.153-2.044-.485-.809-.657-1.564,0-2.255.707-.779,2.328-2.721,3.063-3.623a1.937,1.937,0,0,1,2.259-.693c.869.312,1.577.535,2.452.808a1.587,1.587,0,0,0,1.945-.725,22.582,22.582,0,0,0,2.232-5.6,1.549,1.549,0,0,0-.952-1.965c-.789-.371-1.363-.641-2.135-.976-.866-.368-1.445-.877-1.325-1.816a28.6,28.6,0,0,0,.348-4.737,1.936,1.936,0,0,1,1.42-1.889c.887-.259,1.589-.495,2.459-.788a1.586,1.586,0,0,0,1.147-1.729,22.575,22.575,0,0,0-1.484-5.841,1.551,1.551,0,0,0-1.926-1.031c-.856.164-1.48.283-2.3.467-.921.211-1.692.141-2.144-.7-.869-1.469-1.875-3.116-2.5-4.031a1.936,1.936,0,0,1,.039-2.363c.565-.731,1-1.336,1.525-2.083a1.588,1.588,0,0,0-.088-2.075,22.574,22.574,0,0,0-4.633-3.852,1.549,1.549,0,0,0-2.164.3c-.6.636-1.031,1.1-1.588,1.729-.62.712-1.286,1.108-2.144.7-1.808-.772-3.149-1.335-4.391-1.792a1.939,1.939,0,0,1-1.359-1.935c.028-.924.021-1.665.012-2.581a1.59,1.59,0,0,0-1.292-1.627,22.587,22.587,0,0,0-6.012-.393,1.55,1.55,0,0,0-1.576,1.512c-.108.867-.189,1.495-.268,2.333-.083.94-.388,1.652-1.325,1.824-.775.181-3.291.74-4.605,1.131a1.938,1.938,0,0,1-2.236-.767c-.52-.763-.961-1.36-1.508-2.095a1.59,1.59,0,0,0-2-.557,22.56,22.56,0,0,0-5.1,3.217,1.548,1.548,0,0,0-.384,2.149c.42.764.724,1.32,1.153,2.044.485.809.657,1.564,0,2.255-.685.785-2.415,2.867-3.061,3.623a1.937,1.937,0,0,1-2.259.693c-.871-.312-1.577-.535-2.452-.808a1.587,1.587,0,0,0-1.945.725,22.625,22.625,0,0,0-2.233,5.6,1.551,1.551,0,0,0,.952,1.965c.789.371,1.363.641,2.136.976.861.367,1.438.873,1.324,1.8a37.911,37.911,0,0,0-.347,4.749,1.935,1.935,0,0,1-1.42,1.889c-.887.26-1.591.495-2.459.788a1.586,1.586,0,0,0-1.147,1.729,22.572,22.572,0,0,0,1.484,5.841,1.549,1.549,0,0,0,1.924,1.031c.857-.164,1.48-.283,2.3-.467.92-.211,1.692-.141,2.144.7.4.744,1.879,3.12,2.5,4.031a1.938,1.938,0,0,1-.039,2.363c-.565.731-1,1.336-1.527,2.083a1.59,1.59,0,0,0,.089,2.075,22.53,22.53,0,0,0,4.633,3.852,1.548,1.548,0,0,0,2.163-.3c.6-.636,1.032-1.1,1.588-1.729.621-.712,1.285-1.108,2.144-.7,1.629.685,2.889,1.216,4.392,1.792A1.937,1.937,0,0,1,1279.932,988.342Z"/><path class="a" d="M1265.27,950.482a19.716,19.716,0,1,1,10.5,25.832A19.74,19.74,0,0,1,1265.27,950.482Z" transform="translate(2.984 3.145)"/><ellipse class="a" cx="13.158" cy="19.758" rx="13.158" ry="19.758" transform="translate(1273.23 941.516)"/><path class="a" d="M1297.924,944.116c-3.567,2.052-9.205,3.377-15.552,3.377a38.737,38.737,0,0,1-11.24-1.557,21.322,21.322,0,0,1-4.288-1.807" transform="translate(4.026 5.039)"/><path class="a" d="M1267.227,963.547c3.581-1.872,8.96-3.061,14.974-3.061,6.065,0,11.484,1.209,15.065,3.108" transform="translate(4.153 10.495)"/><line class="a" y2="39.393" transform="translate(1286.355 941.529)"/><line class="a" x2="39.235" transform="translate(1266.833 960.94)"/></g></svg>