<svg xmlns="http://www.w3.org/2000/svg" xmlns:xlink="http://www.w3.org/1999/xlink" width="57.097" height="58.763" viewBox="0 0 57.097 58.763"><defs><style>.a,.c{fill:none;stroke-width:1.5px;}.a{stroke:#707070;}.b{clip-path:url(#a);}.c{stroke:#000;stroke-linecap:round;stroke-linejoin:round;}</style><clipPath id="a"><rect class="a" width="57.097" height="58.763"/></clipPath></defs><g class="b" transform="translate(0 0)"><path class="c" d="M44.142,43.035V58.41H.5V.5H44.142V10.571" transform="translate(-0.074 -0.073)"/><path class="c" d="M62.128,24.905c0,1.593-1.957,2.787-2.531,4.171-.6,1.436-.078,3.658-1.16,4.74s-3.3.564-4.741,1.16c-1.385.574-2.577,2.531-4.171,2.531s-2.786-1.957-4.171-2.531c-1.436-.6-3.658-.078-4.739-1.16s-.565-3.3-1.16-4.74c-.575-1.385-2.532-2.579-2.532-4.171s1.957-2.786,2.532-4.171c.595-1.436.077-3.658,1.16-4.74s3.3-.564,4.739-1.159c1.386-.575,2.579-2.532,4.171-2.532s2.786,1.957,4.171,2.532c1.437.595,3.658.077,4.741,1.16S59,19.3,59.6,20.734C60.172,22.119,62.128,23.312,62.128,24.905Z" transform="translate(-5.458 -1.818)"/><path class="c" d="M56.8,26.024a6.155,6.155,0,1,1-6.155-6.155A6.155,6.155,0,0,1,56.8,26.024Z" transform="translate(-6.576 -2.936)"/><line class="c" x2="15.108" transform="translate(8.819 10.498)"/><line class="c" x2="15.108" transform="translate(8.819 18.051)"/><line class="c" x2="15.108" transform="translate(8.819 25.605)"/><line class="c" x2="15.108" transform="translate(8.819 48.266)"/><path class="c" d="M44.49,38.837V54.844L50.633,48.7l6.557,6.557V38.837" transform="translate(-6.576 -5.74)"/></g></svg>