<svg xmlns="http://www.w3.org/2000/svg" xmlns:xlink="http://www.w3.org/1999/xlink" width="60" height="45" viewBox="0 0 60 45"><defs><style>.a,.c{fill:none;stroke-width:1.5px;}.a{stroke:#707070;}.b{clip-path:url(#a);}.c{stroke:#000;stroke-linecap:round;stroke-linejoin:round;}</style><clipPath id="a"><rect class="a" width="60" height="45" transform="translate(-0.242)"/></clipPath></defs><g transform="translate(0.242)"><g class="b"><path class="c" d="M40.9,25.934c-.1.343-.167.621-.251.964a.612.612,0,0,0,.328.73,8.667,8.667,0,0,0,2.208.721.6.6,0,0,0,.732-.415c.123-.312.213-.541.323-.846.12-.343.3-.58.668-.555.387.02,1.422.026,1.829.017a.746.746,0,0,1,.762.5c.121.335.229.6.363.927a.611.611,0,0,0,.694.4,8.694,8.694,0,0,0,2.211-.715.6.6,0,0,0,.348-.766c-.083-.326-.144-.562-.236-.874-.1-.349-.1-.647.215-.842.338-.222,1.13-.794,1.489-1.061a.746.746,0,0,1,.911-.043c.294.2.537.35.838.536a.612.612,0,0,0,.8-.086A8.694,8.694,0,0,0,56.5,22.645a.6.6,0,0,0-.167-.824c-.259-.214-.447-.37-.7-.569-.288-.22-.457-.465-.322-.8a11.044,11.044,0,0,0,.582-1.736.746.746,0,0,1,.711-.57c.355-.012.641-.032.993-.059a.613.613,0,0,0,.593-.537,8.674,8.674,0,0,0,0-2.323.6.6,0,0,0-.621-.568c-.336-.021-.58-.037-.9-.045-.364-.009-.646-.109-.734-.465-.185-.632-.4-1.342-.549-1.745a.744.744,0,0,1,.239-.878c.281-.219.5-.4.769-.632a.613.613,0,0,0,.165-.784,8.657,8.657,0,0,0-1.364-1.88.6.6,0,0,0-.837-.1c-.283.181-.49.312-.757.494-.3.207-.586.292-.867.056-.6-.46-1.05-.8-1.47-1.088a.748.748,0,0,1-.322-.852c.1-.342.167-.62.251-.963a.612.612,0,0,0-.327-.73,8.7,8.7,0,0,0-2.208-.721.6.6,0,0,0-.732.415c-.124.312-.214.54-.323.846-.122.343-.3.58-.669.555-.307-.006-1.3-.037-1.828-.017a.745.745,0,0,1-.762-.5c-.122-.334-.231-.6-.364-.926a.613.613,0,0,0-.694-.4,8.65,8.65,0,0,0-2.211.715.6.6,0,0,0-.348.766c.084.326.145.562.236.874.1.349.1.647-.216.842-.33.227-1.175.84-1.489,1.061a.747.747,0,0,1-.909.044c-.3-.2-.539-.351-.839-.537a.612.612,0,0,0-.8.086,8.649,8.649,0,0,0-1.368,1.878.6.6,0,0,0,.168.825c.26.214.447.369.7.567.287.22.453.464.322.8a14.515,14.515,0,0,0-.583,1.741.747.747,0,0,1-.71.571c-.357.012-.642.033-.994.059a.612.612,0,0,0-.593.537,8.675,8.675,0,0,0,0,2.323.6.6,0,0,0,.621.568c.335.021.579.036.9.045.363.009.644.109.734.466.078.316.4,1.344.549,1.743a.748.748,0,0,1-.24.879c-.281.22-.5.4-.769.632a.612.612,0,0,0-.164.783,8.715,8.715,0,0,0,1.362,1.881.6.6,0,0,0,.837.094c.284-.179.491-.311.758-.493.3-.207.586-.292.867-.057.544.412.964.73,1.47,1.089A.747.747,0,0,1,40.9,25.934ZM39.849,11.853A7.6,7.6,0,1,1,41.306,22.5,7.609,7.609,0,0,1,39.849,11.853Z" transform="translate(-5.599 -0.715)"/><rect class="c" width="59.159" height="36.662" transform="translate(0.417 0.417)"/><rect class="c" width="59.159" height="4.166" transform="translate(0.417 32.912)"/><path class="c" d="M37.332,48.666V44.5H31.5v4.166h-5V52H42.331V48.666Z" transform="translate(-4.42 -7.422)"/></g></g></svg>