<svg xmlns="http://www.w3.org/2000/svg" xmlns:xlink="http://www.w3.org/1999/xlink" width="65" height="62" viewBox="0 0 65 62"><defs><style>.a,.c{fill:none;stroke-width:1.5px;}.a{stroke:#707070;}.b{clip-path:url(#a);}.c{stroke:#000;stroke-linecap:round;stroke-linejoin:round;}</style><clipPath id="a"><rect class="a" width="65" height="62" transform="translate(0 0)"/></clipPath></defs><g transform="translate(0.734 0.066)"><g class="b" transform="translate(-0.734 -0.066)"><circle class="c" cx="5.278" cy="5.278" r="5.278" transform="translate(27.994 6.393)"/><path class="c" d="M50.3,13.4a12.9,12.9,0,1,0-19.94,10.811V22.2a5.293,5.293,0,0,1,5.278-5.278h3.519A5.293,5.293,0,0,1,44.44,22.2v2.014A12.888,12.888,0,0,0,50.3,13.4Z" transform="translate(-4.13 0.028)"/><path class="c" d="M40.8,21.5H37.278A5.293,5.293,0,0,0,32,26.778v2.014a12.889,12.889,0,0,0,14.075,0V26.778A5.293,5.293,0,0,0,40.8,21.5Z" transform="translate(-5.765 -4.551)"/><circle class="c" cx="5.278" cy="5.278" r="5.278" transform="translate(46.761 41.581)"/><path class="c" d="M74.3,58.4a12.9,12.9,0,1,0-19.94,10.811V67.2a5.293,5.293,0,0,1,5.278-5.278h3.519A5.293,5.293,0,0,1,68.44,67.2v2.014A12.888,12.888,0,0,0,74.3,58.4Z" transform="translate(-9.363 -9.783)"/><path class="c" d="M64.8,66.5H61.278A5.293,5.293,0,0,0,56,71.778v2.014a12.889,12.889,0,0,0,14.075,0V71.778A5.293,5.293,0,0,0,64.8,66.5Z" transform="translate(-10.998 -14.362)"/><circle class="c" cx="5.278" cy="5.278" r="5.278" transform="translate(9.227 41.581)"/><path class="c" d="M26.3,58.4A12.9,12.9,0,1,0,6.365,69.214V67.2a5.293,5.293,0,0,1,5.278-5.278h3.519A5.293,5.293,0,0,1,20.44,67.2v2.014A12.888,12.888,0,0,0,26.3,58.4Z" transform="translate(1.103 -9.783)"/><path class="c" d="M16.8,66.5H13.278A5.293,5.293,0,0,0,8,71.778v2.014a12.889,12.889,0,0,0,14.075,0V71.778A5.293,5.293,0,0,0,16.8,66.5Z" transform="translate(-0.532 -14.362)"/><line class="c" y1="13" x2="8" transform="translate(17 23)"/><line class="c" x2="4" y2="13" transform="translate(44 23)"/><line class="c" x2="11" transform="translate(28 50)"/></g></g></svg>