<svg xmlns="http://www.w3.org/2000/svg" width="53.945" height="65.508" viewBox="0 0 53.945 65.508"><defs><style>.a{fill:none;stroke:#000;stroke-linecap:round;stroke-linejoin:round;stroke-width:1.5px;}</style></defs><g transform="translate(-1196.75 -928.242)"><path class="a" d="M1225.814,929.113a.441.441,0,0,1,.735.271c.532,2.767,2.268,12.553.96,16.1l-.005.015c-1.529,4.143-5.671,6.468-9.2,5.167h0c-3.539-1.3-5.187-5.767-3.66-9.92h0C1215.947,937.2,1223.616,930.875,1225.814,929.113Z" transform="translate(5.524)"/><path class="a" d="M1207.262,951.618a.272.272,0,0,1,.167-.455c1.713-.329,7.777-1.405,9.977-.595l.008,0c2.568.948,4.008,3.513,3.2,5.7h0c-.808,2.192-3.573,3.213-6.147,2.268h0C1212.27,957.732,1208.353,952.981,1207.262,951.618Z" transform="translate(3.23 7.091)"/><path class="a" d="M1239.887,971.14a18.949,18.949,0,0,0-32.328,0,10.391,10.391,0,0,0-10.059,10.381c0,.152.016.3.023.452h52.4c.007-.151.023-.3.023-.452A10.391,10.391,0,0,0,1239.887,971.14Z" transform="translate(0 11.027)"/><line class="a" y1="21.484" transform="translate(1224.039 951.296)"/></g></svg>