<svg xmlns="http://www.w3.org/2000/svg" width="64.408" height="65.164" viewBox="0 0 64.408 65.164"><defs><style>.a{fill:none;stroke:#000;stroke-linecap:round;stroke-linejoin:round;stroke-width:1.5px;}</style></defs><g transform="translate(-1375.225 -927.247)"><g transform="translate(1375.981 927.997)"><path class="a" d="M1401.015,987.027c-.027.92-.021,1.657-.012,2.569a1.582,1.582,0,0,0,1.286,1.617,22.442,22.442,0,0,0,5.981.391,1.541,1.541,0,0,0,1.566-1.5c.109-.861.188-1.486.267-2.321.082-.935.386-1.643,1.319-1.813.98-.2,3.573-.844,4.581-1.126a1.927,1.927,0,0,1,2.224.763c.518.76.956,1.353,1.5,2.084a1.58,1.58,0,0,0,1.99.553,22.449,22.449,0,0,0,5.069-3.2,1.539,1.539,0,0,0,.382-2.138c-.417-.76-.721-1.313-1.147-2.034-.483-.806-.654-1.557,0-2.242.7-.774,2.315-2.707,3.046-3.6a1.927,1.927,0,0,1,2.247-.689c.865.31,1.569.531,2.439.8a1.578,1.578,0,0,0,1.935-.721,22.441,22.441,0,0,0,2.221-5.569,1.539,1.539,0,0,0-.947-1.953c-.785-.37-1.355-.64-2.125-.972-.861-.366-1.438-.873-1.317-1.805a28.43,28.43,0,0,0,.345-4.714,1.929,1.929,0,0,1,1.413-1.88c.882-.258,1.582-.492,2.445-.782a1.582,1.582,0,0,0,1.142-1.722,22.465,22.465,0,0,0-1.477-5.81,1.539,1.539,0,0,0-1.914-1.024c-.853.162-1.473.28-2.289.463-.916.209-1.682.14-2.132-.693-.865-1.463-1.864-3.1-2.487-4.01a1.928,1.928,0,0,1,.038-2.351c.563-.727.992-1.328,1.519-2.071a1.579,1.579,0,0,0-.089-2.063,22.461,22.461,0,0,0-4.609-3.833,1.542,1.542,0,0,0-2.152.3c-.594.633-1.026,1.092-1.579,1.722-.617.708-1.278,1.1-2.132.692-1.8-.768-3.135-1.326-4.37-1.782a1.929,1.929,0,0,1-1.35-1.924c.027-.92.021-1.658.011-2.568a1.582,1.582,0,0,0-1.285-1.618,22.5,22.5,0,0,0-5.981-.391,1.541,1.541,0,0,0-1.566,1.5c-.109.861-.188,1.487-.267,2.321-.084.935-.386,1.643-1.319,1.814-.771.181-3.275.735-4.582,1.125a1.928,1.928,0,0,1-2.224-.763c-.518-.76-.956-1.353-1.5-2.084a1.581,1.581,0,0,0-1.99-.553,22.441,22.441,0,0,0-5.069,3.2,1.541,1.541,0,0,0-.383,2.138c.419.761.722,1.313,1.149,2.034.483.806.654,1.557,0,2.242-.682.782-2.4,2.852-3.046,3.6a1.926,1.926,0,0,1-2.248.689c-.865-.31-1.568-.531-2.438-.8a1.578,1.578,0,0,0-1.935.721,22.449,22.449,0,0,0-2.221,5.569,1.541,1.541,0,0,0,.947,1.955c.785.369,1.355.638,2.125.971.857.365,1.43.869,1.316,1.795a37.71,37.71,0,0,0-.344,4.724,1.928,1.928,0,0,1-1.413,1.88c-.882.258-1.582.492-2.445.782a1.581,1.581,0,0,0-1.142,1.722,22.445,22.445,0,0,0,1.477,5.81,1.54,1.54,0,0,0,1.914,1.026c.853-.163,1.473-.28,2.289-.464.916-.209,1.682-.14,2.132.693.4.74,1.87,3.1,2.487,4.01a1.927,1.927,0,0,1-.039,2.351c-.561.727-.99,1.328-1.518,2.072a1.58,1.58,0,0,0,.089,2.063,22.39,22.39,0,0,0,4.609,3.832,1.541,1.541,0,0,0,2.152-.3c.594-.633,1.026-1.092,1.579-1.72.618-.709,1.278-1.1,2.132-.693,1.621.682,2.874,1.209,4.369,1.783A1.926,1.926,0,0,1,1401.015,987.027ZM1389.4,952.494a19.613,19.613,0,1,1,10.44,25.7A19.634,19.634,0,0,1,1389.4,952.494Z" transform="translate(-1375.981 -927.997)"/></g><g transform="translate(1399.491 951.851)"><line class="a" y2="13.83" transform="translate(15.762 2.252)"/><line class="a" y1="13.83" transform="translate(0 2.252)"/><path class="a" d="M1409.714,951.394c0,1.244-3.528,2.251-7.881,2.251s-7.881-1.007-7.881-2.251" transform="translate(-1393.952 -944.639)"/><path class="a" d="M1409.714,954.837c0,1.243-3.528,2.251-7.881,2.251s-7.881-1.009-7.881-2.251" transform="translate(-1393.952 -943.578)"/><path class="a" d="M1409.714,958.279c0,1.243-3.528,2.252-7.881,2.252s-7.881-1.009-7.881-2.252" transform="translate(-1393.952 -942.517)"/><ellipse class="a" cx="7.881" cy="2.252" rx="7.881" ry="2.252"/></g></g></svg>