<svg xmlns="http://www.w3.org/2000/svg" xmlns:xlink="http://www.w3.org/1999/xlink" width="63.236" height="64" viewBox="0 0 63.236 64"><defs><style>.a,.c{fill:none;stroke-width:1.5px;}.a{stroke:#707070;}.b{clip-path:url(#a);}.c{stroke:#000;stroke-linecap:round;stroke-linejoin:round;}</style><clipPath id="a"><rect class="a" width="63.236" height="64"/></clipPath></defs><g transform="translate(0 0)"><g class="b" transform="translate(0 0)"><path class="c" d="M25.361,59.123c-.027.913-.02,1.646-.012,2.551a1.57,1.57,0,0,0,1.276,1.606,22.3,22.3,0,0,0,5.94.388,1.53,1.53,0,0,0,1.555-1.494c.108-.854.187-1.476.265-2.3.082-.929.383-1.631,1.309-1.8.975-.2,3.548-.837,4.55-1.117a1.915,1.915,0,0,1,2.209.757c.513.754.95,1.344,1.49,2.07a1.568,1.568,0,0,0,1.976.549,22.292,22.292,0,0,0,5.034-3.176,1.53,1.53,0,0,0,.381-2.124c-.416-.754-.716-1.3-1.141-2.02-.479-.8-.649-1.545,0-2.227.7-.769,2.3-2.688,3.025-3.579a1.914,1.914,0,0,1,2.232-.685c.858.308,1.558.528,2.422.8a1.568,1.568,0,0,0,1.921-.716A22.248,22.248,0,0,0,62,41.068a1.53,1.53,0,0,0-.94-1.941c-.78-.366-1.346-.634-2.11-.964-.855-.364-1.428-.867-1.308-1.793a28.278,28.278,0,0,0,.343-4.681,1.914,1.914,0,0,1,1.4-1.866c.876-.256,1.571-.489,2.429-.779a1.568,1.568,0,0,0,1.133-1.709,22.29,22.29,0,0,0-1.466-5.769,1.531,1.531,0,0,0-1.9-1.019c-.846.162-1.462.279-2.273.461-.91.209-1.671.14-2.118-.688-.858-1.452-1.852-3.078-2.47-3.982A1.912,1.912,0,0,1,52.76,14c.558-.723.983-1.319,1.507-2.057A1.57,1.57,0,0,0,54.18,9.9,22.287,22.287,0,0,0,49.6,6.091a1.53,1.53,0,0,0-2.137.294c-.59.628-1.02,1.084-1.569,1.709-.613.7-1.269,1.094-2.118.688-1.787-.763-3.112-1.318-4.338-1.771A1.912,1.912,0,0,1,38.1,5.1c.026-.913.02-1.645.01-2.55A1.571,1.571,0,0,0,36.834.944a22.266,22.266,0,0,0-5.94-.388,1.53,1.53,0,0,0-1.556,1.493c-.108.855-.187,1.476-.264,2.305-.083.929-.384,1.631-1.31,1.8-.765.179-3.252.73-4.551,1.117a1.912,1.912,0,0,1-2.208-.758c-.514-.754-.951-1.343-1.49-2.07A1.569,1.569,0,0,0,17.54,3.9a22.269,22.269,0,0,0-5.035,3.178,1.53,1.53,0,0,0-.38,2.123c.415.754.716,1.3,1.139,2.019.479.8.65,1.546,0,2.227-.677.777-2.385,2.833-3.024,3.579a1.913,1.913,0,0,1-2.232.685c-.859-.308-1.559-.528-2.422-.8a1.57,1.57,0,0,0-1.922.717,22.3,22.3,0,0,0-2.2,5.529A1.529,1.529,0,0,0,2.4,25.1c.779.367,1.346.634,2.11.965.851.363,1.421.863,1.308,1.783a37.373,37.373,0,0,0-.343,4.691,1.914,1.914,0,0,1-1.4,1.867c-.875.256-1.571.489-2.429.778A1.568,1.568,0,0,0,.51,36.889a22.272,22.272,0,0,0,1.466,5.77,1.53,1.53,0,0,0,1.9,1.018c.847-.162,1.462-.278,2.273-.461.91-.209,1.672-.14,2.118.689.4.736,1.856,3.082,2.47,3.982a1.913,1.913,0,0,1-.038,2.335c-.558.722-.984,1.319-1.508,2.057a1.569,1.569,0,0,0,.088,2.049,22.267,22.267,0,0,0,4.577,3.806,1.53,1.53,0,0,0,2.137-.295c.59-.627,1.018-1.084,1.568-1.708.613-.7,1.27-1.095,2.118-.689,1.61.677,2.853,1.2,4.338,1.771A1.914,1.914,0,0,1,25.361,59.123Zm-11.537-34.3A19.477,19.477,0,1,1,24.191,50.347,19.5,19.5,0,0,1,13.824,24.828Z" transform="translate(-0.112 -0.112)"/></g></g></svg>